# xmcd
#
# Track frame offsets: 
#        150
#        13242
#        25168
#        36854
#        50565
#        60092
#        72397
#        83817
#        95217
#        109546
#        125233
#        144134
#        161585
#        170341
#        179895
#        190619
#        206141
#        222229
#        235161
#        253653
#        265173
#        276116
#        287582
#        302456
#        321676
#        335717
#        347098
#        365098
#
# Disc length: 5082 seconds
#
# Revision: 0
# Processed by: cddbd v1.5.2PL0 Copyright (c) Steve Scherf et al.
# Submitted via: ExactAudioCopyFreeDBPlugin 1.0
#
DISCID=b613d81c
DTITLE=Slim Harpo - Buzzin' The Blues: The Complete Slim Harpo [CD2
DTITLE=)
DYEAR=2014
DGENRE=Blues
TTITLE0=Tip On In (Part 1)
TTITLE1=Tip On In (Part 2)
TTITLE2=I'm Gonna Keep What I've Got
TTITLE3=I've Got To Be With You Tonight
TTITLE4=Te-Ni-Nee-Ni-Nu
TTITLE5=Mailbox Blues
TTITLE6=Mohair Sam
TTITLE7=I Just Can't Leave You
TTITLE8=That's Why I Love You
TTITLE9=Just For You
TTITLE10=Folsom Prison Blues
TTITLE11=Mutual Friend
TTITLE12=I've Got My Finger On Your Trigger
TTITLE13=The Price Is Too High
TTITLE14=My Baby She's Got It
TTITLE15=I'm So Sorry
TTITLE16=I've Been A Good Thing For You
TTITLE17=Hey Little Lee
TTITLE18=Jody Man
TTITLE19=Rainin' In My Heart (Overdubbed)
TTITLE20=Stick Your Chest Out Baby
TTITLE21=The Music's Hot
TTITLE22=You Can't Make It
TTITLE23=The Hippy Song
TTITLE24=Dynamite
TTITLE25=Boogie Chillun
TTITLE26=Rock Me Baby
TTITLE27=Baby Please Come Home
EXTD=
EXTT0=
EXTT1=
EXTT2=
EXTT3=
EXTT4=
EXTT5=
EXTT6=
EXTT7=
EXTT8=
EXTT9=
EXTT10=
EXTT11=
EXTT12=
EXTT13=
EXTT14=
EXTT15=
EXTT16=
EXTT17=
EXTT18=
EXTT19=
EXTT20=
EXTT21=
EXTT22=
EXTT23=
EXTT24=
EXTT25=
EXTT26=
EXTT27=
PLAYORDER=
